<svg xmlns="http://www.w3.org/2000/svg" width="24" height="24" fill="none" stroke="black" stroke-width="2" stroke-linecap="round" stroke-linejoin="round"><rect id="backgroundrect" width="100%" height="100%" x="0" y="0" fill="none" stroke="none"/><g class="currentLayer" style=""><title>Layer 1</title><path fill="" fill-opacity="1" stroke="#0b0bd5" stroke-opacity="1" stroke-width="2" stroke-dasharray="none" stroke-linejoin="miter" stroke-linecap="butt" stroke-dashoffset="" fill-rule="nonzero" opacity="1" marker-start="" marker-mid="" marker-end="" d="M1.5102040767669678,11.67346939444542 C1.5102040767669678,6.1486075159923805 6.209099104391278,1.6734693944454193 12.010204076766968,1.6734693944454193 C17.811309049142658,1.6734693944454193 22.510204076766968,6.1486075159923805 22.510204076766968,11.67346939444542 C22.510204076766968,17.198331272898457 17.811309049142658,21.67346939444542 12.010204076766968,21.67346939444542 C6.209099104391278,21.67346939444542 1.5102040767669678,17.198331272898457 1.5102040767669678,11.67346939444542 z" id="svg_2" class=""/><path fill="none" fill-opacity="1" stroke="#0b0bd5" stroke-opacity="1" stroke-width="2" stroke-dasharray="none" stroke-linejoin="miter" stroke-linecap="butt" stroke-dashoffset="" fill-rule="nonzero" opacity="1" marker-start="" marker-mid="" marker-end="" d="M10.979591836734693,17.755102040816325L10.979591836734693,10.163265306122446" id="svg_4" class=""/><polyline fill="none" stroke="#0b0bd5" stroke-width="2" stroke-dashoffset="" fill-rule="nonzero" marker-start="" marker-mid="" marker-end="" id="svg_1" points="10.816326530612242,10.489795918367344 10.816326530612242,10.489795918367344 10.816326530612242,10.489795918367344 10.816326530612242,10.489795918367344 10.816326530612242,10.489795918367344 10.816326530612242,10.326530612244897 10.816326530612242,10.326530612244897 10.816326530612242,10.24489795918367 10.816326530612242,10.163265306122446 10.816326530612242,10.163265306122446 10.816326530612242,10.081632653061222 10.816326530612242,9.918367346938775 10.816326530612242,9.918367346938775 10.816326530612242,9.918367346938775 10.897959183673468,9.836734693877547 10.979591836734693,9.755102040816324 10.979591836734693,9.755102040816324 10.979591836734693,9.755102040816324 10.979591836734693,9.755102040816324 10.979591836734693,9.755102040816324 10.979591836734693,9.755102040816324 10.979591836734693,9.755102040816324 10.979591836734693,9.591836734693876 10.979591836734693,9.510204081632649 10.979591836734693,9.428571428571425 10.979591836734693,9.428571428571425 10.979591836734693,9.265306122448978 10.979591836734693,9.183673469387754 10.979591836734693,9.020408163265303 10.979591836734693,8.93877551020408 10.979591836734693,8.775510204081629 10.979591836734693,8.693877551020405 10.979591836734693,8.612244897959181 10.979591836734693,8.448979591836734 10.979591836734693,8.448979591836734 10.979591836734693,8.367346938775507 10.979591836734693,8.285714285714283 10.979591836734693,8.20408163265306 11.061224489795917,8.20408163265306 11.061224489795917,8.122448979591836 11.061224489795917,8.040816326530608 11.14285714285714,7.959183673469385 11.14285714285714,7.959183673469385 11.224489795918364,7.795918367346937 11.306122448979588,7.7142857142857135 11.306122448979588,7.7142857142857135 11.306122448979588,7.632653061224486 11.387755102040817,7.632653061224486 11.387755102040817,7.469387755102039 11.387755102040817,7.469387755102039 11.551020408163263,7.387755102040815 11.632653061224485,7.306122448979588 11.714285714285714,7.306122448979588 11.714285714285714,7.306122448979588 11.714285714285714,7.224489795918364 11.795918367346937,7.224489795918364 11.877551020408161,7.224489795918364 11.877551020408161,7.224489795918364 11.877551020408161,7.224489795918364 11.959183673469385,7.142857142857141 11.959183673469385,7.142857142857141 12.122448979591834,7.061224489795917 12.367346938775505,6.979591836734692 12.367346938775505,6.979591836734692 12.448979591836734,6.897959183673466 12.530612244897958,6.897959183673466 12.612244897959181,6.897959183673466 12.775510204081629,6.897959183673466 12.857142857142854,6.897959183673466 12.93877551020408,6.816326530612242 13.102040816326525,6.816326530612242 13.183673469387756,6.816326530612242 13.265306122448978,6.816326530612242 13.346938775510202,6.816326530612242 13.510204081632649,6.816326530612242 13.591836734693874,6.816326530612242 13.6734693877551,6.816326530612242 13.755102040816324,6.816326530612242 13.918367346938776,6.816326530612242 13.999999999999998,6.816326530612242 14.163265306122447,6.816326530612242 14.24489795918367,6.816326530612242 14.326530612244895,6.816326530612242 14.40816326530612,6.816326530612242 14.571428571428568,6.816326530612242 14.653061224489797,6.816326530612242 14.734693877551019,6.816326530612242 14.816326530612242,6.816326530612242 14.816326530612242,6.816326530612242 14.97959183673469,6.816326530612242 14.97959183673469,6.816326530612242 15.061224489795917,6.816326530612242 15.061224489795917,6.816326530612242 15.061224489795917,6.816326530612242 15.14285714285714,6.816326530612242 15.306122448979588,6.816326530612242 15.306122448979588,6.816326530612242 15.306122448979588,6.816326530612242 15.306122448979588,6.816326530612242 15.306122448979588,6.816326530612242 15.306122448979588,6.816326530612242 15.306122448979588,6.816326530612242 15.306122448979588,6.816326530612242 15.306122448979588,6.816326530612242 15.306122448979588,6.816326530612242 15.306122448979588,6.816326530612242 15.306122448979588,6.816326530612242 15.306122448979588,6.816326530612242 15.306122448979588,6.816326530612242 15.306122448979588,6.816326530612242 " style="color: rgb(0, 0, 0);"/><polyline fill="none" stroke="#0b0bd5" stroke-width="2" stroke-dashoffset="" fill-rule="nonzero" marker-start="" marker-mid="" marker-end="" id="svg_3" points="7.7142857142857135,11.306122448979588 8.122448979591836,11.306122448979588 8.285714285714283,11.306122448979588 8.530612244897958,11.306122448979588 8.857142857142856,11.306122448979588 8.93877551020408,11.306122448979588 9.265306122448978,11.306122448979588 9.510204081632653,11.306122448979588 9.755102040816324,11.306122448979588 9.918367346938775,11.306122448979588 10.081632653061222,11.306122448979588 10.244897959183673,11.306122448979588 10.489795918367344,11.306122448979588 10.571428571428568,11.306122448979588 10.653061224489797,11.306122448979588 10.734693877551019,11.306122448979588 10.897959183673468,11.306122448979588 11.061224489795917,11.306122448979588 11.14285714285714,11.306122448979588 11.306122448979588,11.306122448979588 11.469387755102039,11.306122448979588 11.714285714285714,11.306122448979588 11.877551020408161,11.306122448979588 11.959183673469385,11.306122448979588 12.20408163265306,11.306122448979588 12.448979591836734,11.306122448979588 12.612244897959181,11.306122448979588 12.775510204081629,11.306122448979588 12.857142857142854,11.306122448979588 12.93877551020408,11.306122448979588 13.183673469387756,11.306122448979588 13.265306122448978,11.306122448979588 13.428571428571427,11.306122448979588 13.591836734693874,11.306122448979588 13.6734693877551,11.306122448979588 13.755102040816324,11.306122448979588 13.836734693877546,11.306122448979588 13.836734693877546,11.306122448979588 13.918367346938776,11.306122448979588 14.081632653061222,11.306122448979588 14.163265306122447,11.306122448979588 14.163265306122447,11.306122448979588 14.24489795918367,11.306122448979588 14.40816326530612,11.306122448979588 14.489795918367344,11.306122448979588 14.489795918367344,11.306122448979588 14.489795918367344,11.306122448979588 14.489795918367344,11.306122448979588 14.653061224489797,11.306122448979588 14.653061224489797,11.306122448979588 14.653061224489797,11.306122448979588 14.653061224489797,11.306122448979588 14.653061224489797,11.306122448979588 14.653061224489797,11.306122448979588 14.653061224489797,11.306122448979588 14.653061224489797,11.306122448979588 " style="color: rgb(0, 0, 0);"/></g></svg>