<svg xmlns="http://www.w3.org/2000/svg" width="32.489795918367356" height="31.183673469387756" fill="none" stroke="black" stroke-width="2" stroke-linecap="round" stroke-linejoin="round" style=""><rect id="backgroundrect" width="100%" height="100%" x="0" y="0" fill="none" stroke="none" class="" style=""/><g class="currentLayer" style=""><title>Layer 1</title><circle cx="16.857142686843872" cy="15.673469245433807" r="14.36734676361084" id="svg_1" class="" fill="#1aebeb" fill-opacity="1" stroke-width="1" stroke="#004444" stroke-opacity="1" filter=""/><path fill="#004444" fill-opacity="1" stroke="#003838" stroke-opacity="1" stroke-width="1" stroke-dasharray="none" stroke-linejoin="miter" stroke-linecap="butt" stroke-dashoffset="" fill-rule="nonzero" opacity="1" marker-start="" marker-mid="" marker-end="" d="M20.082465433190634,14.082506945254742 C20.082465433190634,12.776352394963086 21.046903351300422,11.718367209226841 22.237567447732264,11.718367209226841 C23.4282315441641,11.718367209226841 24.392669462273886,12.776352394963086 24.392669462273886,14.082506945254742 C24.392669462273886,15.388661495546401 23.4282315441641,16.446646681282644 22.237567447732264,16.446646681282644 C21.046903351300422,16.446646681282644 20.082465433190634,15.388661495546401 20.082465433190634,14.082506945254742 z" id="svg_2" class=""/><path fill="#004444" fill-opacity="1" stroke="#003a3a" stroke-opacity="1" stroke-width="1" stroke-dasharray="none" stroke-linejoin="miter" stroke-linecap="butt" stroke-dashoffset="" fill-rule="nonzero" opacity="1" marker-start="" marker-mid="" marker-end="" d="M10.46513922660364,13.666180490826205 C10.46513922660364,11.867137302252303 11.429577144713429,10.40991231950744 12.620241241145266,10.40991231950744 C13.810905337577102,10.40991231950744 14.775343255686892,11.867137302252303 14.775343255686892,13.666180490826205 C14.775343255686892,15.465223679400111 13.810905337577102,16.922448662144973 12.620241241145266,16.922448662144973 C11.429577144713429,16.922448662144973 10.46513922660364,15.465223679400111 10.46513922660364,13.666180490826205 z" class="" id="svg_3"/><path fill="none" fill-opacity="1" stroke="#004444" stroke-opacity="1" stroke-width="1" stroke-dasharray="none" stroke-linejoin="miter" stroke-linecap="butt" stroke-dashoffset="" fill-rule="nonzero" opacity="1" marker-start="" marker-mid="" marker-end="" d="M21.724447916965097,21.430670315301796 L11.87255299334623,21.430670315301796 " id="svg_4" class=""/><polyline fill="none" stroke="#004444" stroke-width="1" stroke-dashoffset="" fill-rule="nonzero" marker-start="" marker-mid="" marker-end="" id="svg_6" points="12.341691255569458,21.430669486522675 12.224405527114868,21.430669486522675 12.107121706008911,21.430669486522675 12.107121706008911,21.311719596385956 11.989836931228638,21.311719596385956 11.87255311012268,21.192769706249237 11.755268335342407,21.192769706249237 11.637983560562134,21.192769706249237 11.637983560562134,21.07381981611252 11.520699739456177,21.07381981611252 11.520699739456177,20.954868018627167 11.520699739456177,20.954868018627167 11.403414964675903,20.835918128490448 11.168846368789673,20.835918128490448 11.168846368789673,20.71696823835373 11.0515615940094,20.71696823835373 11.0515615940094,20.59801834821701 10.934277772903442,20.59801834821701 10.816992998123169,20.36011666059494 10.699708223342896,20.36011666059494 10.699708223342896,20.24116677045822 10.465139627456665,20.12221497297287 10.465139627456665,20.00326508283615 10.465139627456665,19.884315192699432 10.465139627456665,19.884315192699432 10.465139627456665,19.646413505077362 10.347854852676392,19.646413505077362 10.347854852676392,19.646413505077362 10.347854852676392,19.646413505077362 10.347854852676392,19.527463614940643 10.347854852676392,19.527463614940643 10.347854852676392,19.527463614940643 10.347854852676392,19.527463614940643 10.347854852676392,19.40851181745529 10.347854852676392,19.40851181745529 " style="color: rgb(28, 141, 147);" class="" stroke-opacity="1"/><path fill="none" fill-opacity="1" stroke="#004444" stroke-opacity="1" stroke-width="1" stroke-dasharray="none" stroke-linejoin="miter" stroke-linecap="butt" stroke-dashoffset="" fill-rule="nonzero" opacity="1" marker-start="" marker-mid="" marker-end="" d="M18.792336336050063,11.438833762575863 L25.82940413863497,11.438833762575863 " id="svg_7" class=""/><path fill="#009899" fill-opacity="1" stroke="#004444" stroke-opacity="1" stroke-width="1" stroke-dasharray="none" stroke-linejoin="miter" stroke-linecap="butt" stroke-dashoffset="" fill-rule="nonzero" opacity="1" marker-start="" marker-mid="" marker-end="" d="M8.823156935947228,7.156618084587786 L15.508371348402886,7.632419824961669 " id="svg_5" class=""/></g><defs><filter xmlns:inkscape="http://www.inkscape.org/namespaces/inkscape" id="f117" inkscape:label="Diffuse light" inkscape:menu="ABCs" inkscape:menu-tooltip="Basic diffuse bevel to use for building textures" color-interpolation-filters="sRGB">
            <feGaussianBlur stdDeviation="6" in="SourceGraphic" result="result0"/>
            <feDiffuseLighting diffuseConstant="1" surfaceScale="10" result="result5">
                <feDistantLight elevation="25" azimuth="235"/>
            </feDiffuseLighting>
            <feComposite k1="1" in2="SourceGraphic" in="result5" result="result4" operator="arithmetic" k2="0" k3=".6"/>
        </filter></defs></svg>