<svg xmlns="http://www.w3.org/2000/svg" width="32.48979568481445" height="31.183673858642578" fill="none" stroke="black" stroke-width="2" stroke-linecap="round" stroke-linejoin="round" style=""><rect id="backgroundrect" width="100%" height="100%" x="0" y="0" fill="none" stroke="none" class="" style=""/><g class="currentLayer" style=""><title>Layer 1</title><circle cx="16.85714340209961" cy="15.673469543457031" r="14.36734676361084" id="svg_1" class="" fill="#1aebeb" fill-opacity="1" stroke-width="2" stroke="#004444" stroke-opacity="1" filter=""/><path fill="#004444" fill-opacity="1" stroke="#003838" stroke-opacity="1" stroke-width="1" stroke-dasharray="none" stroke-linejoin="miter" stroke-linecap="butt" stroke-dashoffset="" fill-rule="nonzero" opacity="1" marker-start="" marker-mid="" marker-end="" d="M20.082465433190634,14.082506945254742 C20.082465433190634,12.776352394963086 21.046903351300422,11.718367209226841 22.237567447732264,11.718367209226841 C23.4282315441641,11.718367209226841 24.392669462273886,12.776352394963086 24.392669462273886,14.082506945254742 C24.392669462273886,15.388661495546401 23.4282315441641,16.446646681282644 22.237567447732264,16.446646681282644 C21.046903351300422,16.446646681282644 20.082465433190634,15.388661495546401 20.082465433190634,14.082506945254742 z" id="svg_2" class=""/><path fill="#004444" fill-opacity="1" stroke="#003a3a" stroke-opacity="1" stroke-width="1" stroke-dasharray="none" stroke-linejoin="miter" stroke-linecap="butt" stroke-dashoffset="" fill-rule="nonzero" opacity="1" marker-start="" marker-mid="" marker-end="" d="M10.46513922660364,13.666180490826205 C10.46513922660364,11.867137302252303 11.429577144713429,10.40991231950744 12.620241241145266,10.40991231950744 C13.810905337577102,10.40991231950744 14.775343255686892,11.867137302252303 14.775343255686892,13.666180490826205 C14.775343255686892,15.465223679400111 13.810905337577102,16.922448662144973 12.620241241145266,16.922448662144973 C11.429577144713429,16.922448662144973 10.46513922660364,15.465223679400111 10.46513922660364,13.666180490826205 z" class="" id="svg_3"/><path fill="none" fill-opacity="1" stroke="#004444" stroke-opacity="1" stroke-width="2.2" stroke-dasharray="none" stroke-linejoin="miter" stroke-linecap="butt" stroke-dashoffset="" fill-rule="nonzero" opacity="1" marker-start="" marker-mid="" marker-end="" d="M22.70403976343116,22.165364200151345 L12.852144839812293,22.165364200151345 " id="svg_4" class=""/><polyline fill="none" stroke="#004444" stroke-width="2.2" stroke-dashoffset="" fill-rule="nonzero" marker-start="" marker-mid="" marker-end="" id="svg_6" points="12.749854296445847,22.08373099565506 12.632568567991257,22.08373099565506 12.5152847468853,22.08373099565506 12.5152847468853,21.96478110551834 12.397999972105026,21.96478110551834 12.28071615099907,21.845831215381622 12.163431376218796,21.845831215381622 12.046146601438522,21.845831215381622 12.046146601438522,21.726881325244904 11.928862780332565,21.726881325244904 11.928862780332565,21.607929527759552 11.928862780332565,21.607929527759552 11.811578005552292,21.488979637622833 11.577009409666061,21.488979637622833 11.577009409666061,21.370029747486115 11.459724634885788,21.370029747486115 11.459724634885788,21.251079857349396 11.342440813779831,21.251079857349396 11.225156038999557,21.013178169727325 11.107871264219284,21.013178169727325 11.107871264219284,20.894228279590607 10.873302668333054,20.775276482105255 10.873302668333054,20.656326591968536 10.873302668333054,20.537376701831818 10.873302668333054,20.537376701831818 10.873302668333054,20.299475014209747 10.75601789355278,20.299475014209747 10.75601789355278,20.299475014209747 10.75601789355278,20.299475014209747 10.75601789355278,20.18052512407303 10.75601789355278,20.18052512407303 10.75601789355278,20.18052512407303 10.75601789355278,20.18052512407303 10.75601789355278,20.061573326587677 10.75601789355278,20.061573326587677 " style="color: rgb(28, 141, 147);" class="" stroke-opacity="1"/><path fill="none" fill-opacity="1" stroke="#004444" stroke-opacity="1" stroke-width="1.5" stroke-dasharray="none" stroke-linejoin="miter" stroke-linecap="butt" stroke-dashoffset="" fill-rule="nonzero" opacity="1" marker-start="" marker-mid="" marker-end="" d="M18.792336336050063,11.438833762575863 L25.82940413863497,11.438833762575863 " id="svg_7" class=""/><path fill="#009899" fill-opacity="1" stroke="#004444" stroke-opacity="1" stroke-width="1.5" stroke-dasharray="none" stroke-linejoin="miter" stroke-linecap="butt" stroke-dashoffset="" fill-rule="nonzero" opacity="1" marker-start="" marker-mid="" marker-end="" d="M8.823156935947228,7.156618084587786 L15.508371348402886,7.632419824961669 " id="svg_5" class=""/><polyline fill="none" stroke="#004444" stroke-width="1" stroke-dashoffset="" fill-rule="nonzero" marker-start="" marker-mid="" marker-end="" id="svg_8" points="17.306122448979586,22.138775261080994 17.306122448979586,22.138775261080994 " style="color: rgb(0, 68, 68);" class=""/></g><defs><filter xmlns:inkscape="http://www.inkscape.org/namespaces/inkscape" id="f117" inkscape:label="Diffuse light" inkscape:menu="ABCs" inkscape:menu-tooltip="Basic diffuse bevel to use for building textures" color-interpolation-filters="sRGB">
            <feGaussianBlur stdDeviation="6" in="SourceGraphic" result="result0"/>
            <feDiffuseLighting diffuseConstant="1" surfaceScale="10" result="result5">
                <feDistantLight elevation="25" azimuth="235"/>
            </feDiffuseLighting>
            <feComposite k1="1" in2="SourceGraphic" in="result5" result="result4" operator="arithmetic" k2="0" k3=".6"/>
        </filter></defs></svg>