<svg xmlns="http://www.w3.org/2000/svg" width="24" height="24" fill="none" stroke="black" stroke-width="2" stroke-linecap="round" stroke-linejoin="round"><rect id="backgroundrect" width="100%" height="100%" x="0" y="0" fill="none" stroke="none"/><g class="currentLayer" style=""><title>Layer 1</title><circle cx="12" cy="11.755102157592773" r="10" id="svg_1" class="selected" fill="#1aebeb" fill-opacity="1" stroke-width="0.5" stroke="#1c8d93" stroke-opacity="1" filter="url(#f117)"/><path fill="#009899" fill-opacity="1" stroke="#1c8d93" stroke-opacity="1" stroke-width="0.5" stroke-dasharray="none" stroke-linejoin="miter" stroke-linecap="butt" stroke-dashoffset="" fill-rule="nonzero" opacity="1" marker-start="" marker-mid="" marker-end="" d="M14.244897961616516,10.663265264504066 C14.244897961616516,9.766884674012632 14.91616867984856,9.040816395714568 15.744897961616516,9.040816395714568 C16.573627243384472,9.040816395714568 17.244897961616516,9.766884674012632 17.244897961616516,10.663265264504066 C17.244897961616516,11.559645854995502 16.573627243384472,12.285714133293563 15.744897961616516,12.285714133293563 C14.91616867984856,12.285714133293563 14.244897961616516,11.559645854995502 14.244897961616516,10.663265264504066 z" id="svg_2" class=""/><path fill="#009899" fill-opacity="1" stroke="#1c8d93" stroke-opacity="1" stroke-width="0.5" stroke-dasharray="none" stroke-linejoin="miter" stroke-linecap="butt" stroke-dashoffset="" fill-rule="nonzero" opacity="1" marker-start="" marker-mid="" marker-end="" d="M7.551020264625549,10.377551025730005 C7.551020264625549,9.142913520288266 8.222290982857594,8.142857140880457 9.05102026462555,8.142857140880457 C9.879749546393505,8.142857140880457 10.55102026462555,9.142913520288266 10.55102026462555,10.377551025730005 C10.55102026462555,11.612188531171745 9.879749546393505,12.612244910579555 9.05102026462555,12.612244910579555 C8.222290982857594,12.612244910579555 7.551020264625549,11.612188531171745 7.551020264625549,10.377551025730005 z" class="" id="svg_3"/><path fill="none" fill-opacity="1" stroke="#1c8d93" stroke-opacity="1" stroke-width="1" stroke-dasharray="none" stroke-linejoin="miter" stroke-linecap="butt" stroke-dashoffset="" fill-rule="nonzero" opacity="1" marker-start="" marker-mid="" marker-end="" d="M15.387755102040817,15.706122573541133L8.530612244897958,15.706122573541133" id="svg_4" class=""/><polyline fill="none" stroke="#1c8d93" stroke-width="1" stroke-dashoffset="" fill-rule="nonzero" marker-start="" marker-mid="" marker-end="" id="svg_6" points="8.857142857142856,15.706122573541133 8.775510204081632,15.706122573541133 8.693877551020405,15.706122573541133 8.693877551020405,15.624489920479911 8.612244897959181,15.624489920479911 8.530612244897958,15.542857267418686 8.448979591836734,15.542857267418686 8.367346938775507,15.542857267418686 8.367346938775507,15.461224614357459 8.285714285714283,15.461224614357459 8.285714285714283,15.379591961296235 8.285714285714283,15.379591961296235 8.20408163265306,15.29795930823501 8.040816326530612,15.29795930823501 8.040816326530612,15.216326655173788 7.959183673469385,15.216326655173788 7.959183673469385,15.134694002112564 7.877551020408161,15.134694002112564 7.795918367346937,14.971428695990113 7.7142857142857135,14.971428695990113 7.7142857142857135,14.889796042928891 7.551020408163263,14.808163389867666 7.551020408163263,14.726530736806438 7.551020408163263,14.644898083745215 7.551020408163263,14.644898083745215 7.551020408163263,14.481632777622767 7.469387755102039,14.481632777622767 7.469387755102039,14.481632777622767 7.469387755102039,14.481632777622767 7.469387755102039,14.400000124561544 7.469387755102039,14.400000124561544 7.469387755102039,14.400000124561544 7.469387755102039,14.400000124561544 7.469387755102039,14.318367471500316 7.469387755102039,14.318367471500316 " style="color: rgb(28, 141, 147);" class=""/><path fill="none" fill-opacity="1" stroke="#1c8d93" stroke-opacity="1" stroke-width="0.7" stroke-dasharray="none" stroke-linejoin="miter" stroke-linecap="butt" stroke-dashoffset="" fill-rule="nonzero" opacity="1" marker-start="" marker-mid="" marker-end="" d="M13.346938777943041,8.848979713053119 L18.244897961616516,8.848979713053119 " id="svg_7" class=""/><path fill="#009899" fill-opacity="1" stroke="#1c8d93" stroke-opacity="1" stroke-width="0.5" stroke-dasharray="none" stroke-linejoin="miter" stroke-linecap="butt" stroke-dashoffset="" fill-rule="nonzero" opacity="1" marker-start="" marker-mid="" marker-end="" d="M6.408163258615803,5.910204192813561 L11.0612244831056,6.236734805058458 " id="svg_5" class=""/></g><defs><filter id="f117" xmlns:inkscape="http://www.inkscape.org/namespaces/inkscape" inkscape:label="Diffuse light" inkscape:menu="ABCs" inkscape:menu-tooltip="Basic diffuse bevel to use for building textures" color-interpolation-filters="sRGB">
            <feGaussianBlur stdDeviation="6" in="SourceGraphic" result="result0"/>
            <feDiffuseLighting diffuseConstant="1" surfaceScale="10" result="result5">
                <feDistantLight elevation="25" azimuth="235"/>
            </feDiffuseLighting>
            <feComposite k1="1" in2="SourceGraphic" in="result5" result="result4" operator="arithmetic" k2="0" k3=".6"/>
        </filter></defs></svg>