<svg xmlns="http://www.w3.org/2000/svg" width="24" height="24" fill="none" stroke="black" stroke-width="2" stroke-linecap="round" stroke-linejoin="round" style=""><rect id="backgroundrect" width="100%" height="100%" x="0" y="0" fill="none" stroke="none"/><g class="currentLayer" style=""><title>Layer 1</title><path d="M22.54 6.42a2.78 2.78 0 0 0-1.94-2C18.88 4 12 4 12 4s-6.88 0-8.6.46a2.78 2.78 0 0 0-1.94 2A29 29 0 0 0 1 11.75a29 29 0 0 0 .46 5.33A2.78 2.78 0 0 0 3.4 19c1.72.46 8.6.46 8.6.46s6.88 0 8.6-.46a2.78 2.78 0 0 0 1.94-2 29 29 0 0 0 .46-5.25 29 29 0 0 0-.46-5.33z" id="svg_1" class="" stroke="#eb1a1a" stroke-opacity="1"/><polygon points="9.75 15.02 15.5 11.75 9.75 8.48 9.75 15.02" id="svg_2" class="selected" stroke="#eb1a1a" stroke-opacity="1"/></g></svg>